<svg width="512" height="512" viewBox="0 0 512 512" fill="none" xmlns="http://www.w3.org/2000/svg">
  <rect width="512" height="512" rx="104" fill="#111827"/>
  <rect x="112" y="112" width="288" height="288" rx="56" fill="#2563EB"/>
  <path d="M155 326V186H199.9C227.5 186 244.9 199.9 244.9 223.2C244.9 246.5 227.5 260.4 199.9 260.4H177.6V326H155ZM177.6 241.5H196.8C212.4 241.5 221.4 234.3 221.4 223.2C221.4 212.1 212.4 204.9 196.8 204.9H177.6V241.5Z" fill="white"/>
  <path d="M269.3 326V186H292.4L353.2 288.5V186H375.8V326H352.7L291.9 223.5V326H269.3Z" fill="white"/>
</svg>
